<?xml version="1.0" encoding="UTF-8"?>
<svg width="13px" height="9px" viewBox="0 0 13 9" version="1.1" xmlns="http://www.w3.org/2000/svg" xmlns:xlink="http://www.w3.org/1999/xlink">
    <title>atoms/icons/filter tags/guests3</title>
    <g id="Symbols" stroke="none" stroke-width="1" fill="none" fill-rule="evenodd">
        <g id="_linked/03.-hotel---subpage---all-deals" transform="translate(-24.000000, -440.000000)" fill="#7A8694">
            <g id="section---standard-room" transform="translate(16.000000, 183.000000)">
                <g id="card" transform="translate(0.000000, 31.000000)">
                    <g id="bottom" transform="translate(0.000000, 160.000000)">
                        <g id="row" transform="translate(8.000000, 58.000000)">
                            <g id="specs" transform="translate(0.000000, 3.000000)">
                                <g id="atoms/icons/filter-tags/guests" transform="translate(0.000000, 2.000000)">
                                    <path d="M2.48319231,7 C3.47842886,7 4.34807705,7.67216427 4.59891273,8.63527238 L5.14915043,10.7479638 C5.2883462,11.2824195 4.96792466,11.828522 4.43346888,11.9677178 C4.35117126,11.9891517 4.26647563,12 4.18143263,12 L1.08066261,12 C0.528377858,12 0.0806626075,11.5522847 0.0806626075,11 C0.0806626075,10.9398537 0.0860889446,10.8798301 0.0968756357,10.820659 L0.490314045,8.66242646 C0.665825994,7.699644 1.50454299,7 2.48319231,7 Z M2.5,3 C3.32842712,3 4,3.67157288 4,4.5 C4,5.32842712 3.32842712,6 2.5,6 C1.67157288,6 1,5.32842712 1,4.5 C1,3.67157288 1.67157288,3 2.5,3 Z M6.5,3 C7.32842712,3 8,3.67157288 8,4.5 C8,5.32842712 7.32842712,6 6.5,6 C5.67157288,6 5,5.32842712 5,4.5 C5,3.67157288 5.67157288,3 6.5,3 Z M6.55043993,7 C7.48373056,7 8.28923352,7.65422551 8.48061926,8.56768208 L8.94726908,10.7949345 C9.06052364,11.3354822 8.71413409,11.8654937 8.17358636,11.9787482 C8.10614591,11.9928782 8.03742563,12 7.96852083,12 L6.16096005,12.0008057 L6.15784647,11.9223626 L6.15784647,11.9223626 L6.14844093,11.8431818 L5.53433731,7.97560913 C5.50422761,7.78598077 5.44807472,7.60612023 5.36987693,7.43944103 C5.68664209,7.16480767 6.10117033,7 6.55043993,7 Z M10.5,3 C11.3284271,3 12,3.67157288 12,4.5 C12,5.32842712 11.3284271,6 10.5,6 C9.67157288,6 9,5.32842712 9,4.5 C9,3.67157288 9.67157288,3 10.5,3 Z M10.2158759,7 C11.3060769,7 12.244376,7.77030408 12.4567069,8.83962801 L12.8470093,10.8052369 C12.954574,11.3469455 12.6026308,11.8732856 12.0609221,11.9808503 C11.9967833,11.9935861 11.93155,12 11.8661589,12 L10.2543457,11.999 L9.54112015,7.94237881 C9.49456425,7.67800995 9.3973713,7.4334418 9.26057975,7.2179388 C9.55113804,7.07765071 9.87560709,7 10.2158759,7 Z" id="atoms/icons/guests"></path>
                                </g>
                            </g>
                        </g>
                    </g>
                </g>
            </g>
        </g>
    </g>
</svg>