<?xml version="1.0" encoding="UTF-8"?>
<svg width="14px" height="13px" viewBox="0 0 14 13" version="1.1" xmlns="http://www.w3.org/2000/svg" xmlns:xlink="http://www.w3.org/1999/xlink">
    <title>atoms/icons/filter tags/gueststwo-guests</title>
    <g id="Symbols" stroke="none" stroke-width="1" fill="none" fill-rule="evenodd">
        <g id="_linked/03.-hotel---subpage---all-deals" transform="translate(-25.000000, -381.000000)" fill="#7A8694">
            <g id="section---standard-room" transform="translate(16.000000, 183.000000)">
                <g id="card" transform="translate(0.000000, 31.000000)">
                    <g id="bottom" transform="translate(0.000000, 160.000000)">
                        <g id="row" transform="translate(8.000000, 0.000000)">
                            <g id="specs" transform="translate(0.000000, 4.000000)">
                                <g id="atoms/icons/filter-tags/guests" transform="translate(0.000000, 1.500000)">
                                    <path d="M6.00197446,7 C7.92087674,7 9.55494121,8.39525943 9.85561122,10.2904596 L10.2606165,12.8433114 C10.3471532,13.3887744 9.97511994,13.9011114 9.42965697,13.9876481 C9.37783242,13.9958699 9.32544112,14 9.27296842,14 L2.7309805,14 C2.17869575,14 1.7309805,13.5522847 1.7309805,13 C1.7309805,12.9475273 1.73511056,12.895136 1.74333243,12.8433114 L2.14833769,10.2904596 C2.44900771,8.39525943 4.08307218,7 6.00197446,7 Z M11.4415205,3.5 C12.4136708,3.5 13.2017544,4.28350169 13.2017544,5.25 C13.2017544,6.21649831 12.4136708,7 11.4415205,7 C10.4693701,7 9.68128655,6.21649831 9.68128655,5.25 C9.68128655,4.28350169 10.4693701,3.5 11.4415205,3.5 Z M5.72076023,1.75 C6.93594817,1.75 7.92105263,2.72937711 7.92105263,3.9375 C7.92105263,5.14562289 6.93594817,6.125 5.72076023,6.125 C4.5055723,6.125 3.52046784,5.14562289 3.52046784,3.9375 C3.52046784,2.72937711 4.5055723,1.75 5.72076023,1.75 Z M11.7227617,7.875 C13.0336708,7.875 14.1393964,8.85122842 14.3018445,10.1520333 L14.6420309,12.8760798 C14.7104701,13.4241077 14.3216867,13.923853 13.7736589,13.9922922 C13.7325517,13.9974258 13.6911652,14 13.6497387,14 L11.7338281,14 L11.0607562,10.2866037 C10.9303313,9.56703848 10.6123057,8.92172609 10.1626413,8.39739696 C10.5982248,8.06776923 11.1402351,7.875 11.7227617,7.875 Z" id="atoms/icons/guests"></path>
                                </g>
                            </g>
                        </g>
                    </g>
                </g>
            </g>
        </g>
    </g>
</svg>