<?xml version="1.0" encoding="UTF-8"?>
<svg width="60px" height="58px" viewBox="0 0 60 58" version="1.1" xmlns="http://www.w3.org/2000/svg" xmlns:xlink="http://www.w3.org/1999/xlink">
    <title>molecules/room filter/00. defaultnon-smoking</title>
    <g id="Symbols" stroke="none" stroke-width="1" fill="none" fill-rule="evenodd">
        <g id="_linked/03.-hotel---subpage---all-deals" transform="translate(-210.000000, -92.000000)">
            <g id="filters" transform="translate(0.000000, 64.000000)">
                <g id="molecules/room-filter/00.-default" transform="translate(210.000000, 28.000000)">
                    <text id="Non-smoking" font-family="Helvetica" font-size="10" font-weight="normal" line-spacing="20" fill="#0077FF">
                        <tspan x="0.544433594" y="48">Non-smoking</tspan>
                    </text>
                    <circle id="Oval" stroke="#BED2E9" fill="#FEFEFF" fill-rule="nonzero" cx="30" cy="20" r="19.5"></circle>
                    <g id="icons" transform="translate(20.000000, 11.425770)">
                        <rect id="Rectangle" stroke="#0077FF" stroke-width="2" stroke-linecap="round" stroke-linejoin="round" x="0" y="10.5742302" width="14" height="4"></rect>
                        <rect id="Rectangle" fill="#0077FF" x="17" y="9.5742302" width="2" height="6" rx="1"></rect>
                        <path d="M14,9.5742302 L15,9.5742302 C15.5522847,9.5742302 16,10.0219454 16,10.5742302 L16,14.5742302 C16,15.1265149 15.5522847,15.5742302 15,15.5742302 L14,15.5742302 L14,15.5742302 L14,9.5742302 Z" id="Rectangle" fill="#0077FF"></path>
                        <path d="M18.0600279,7.85314107 C17.2343742,7.18898528 16.9245128,6.31786714 17.1304436,5.23978666 C17.4393398,3.62266594 18.155888,3.33102211 18.0600279,1.68633559 C17.9420929,1.00670311 17.6322314,0.444591243 17.1304436,0" id="Path-2" stroke="#0077FF" stroke-width="2" stroke-linecap="round" stroke-linejoin="round"></path>
                        <path d="M13.9809064,7.30749341 C13.4763935,6.72532722 13.1889621,5.88819904 13.2868172,5.22606512 C13.4763935,3.94330182 14.7118687,3.5701604 14.0983774,2.3546702" id="Path-2" stroke="#0077FF" stroke-width="2" stroke-linecap="round" stroke-linejoin="round"></path>
                    </g>
                </g>
            </g>
        </g>
    </g>
</svg>