<?xml version="1.0" encoding="UTF-8"?>
<svg width="40px" height="40px" viewBox="0 0 40 40" version="1.1" xmlns="http://www.w3.org/2000/svg" xmlns:xlink="http://www.w3.org/1999/xlink">
    <title>icon/pay at hotel</title>
    <g id="Page-1" stroke="none" stroke-width="1" fill="none" fill-rule="evenodd">
        <g id="03.-hotel---subpage---all-deals" transform="translate(-292.000000, -92.000000)">
            <g id="filters" transform="translate(0.000000, 64.000000)">
                <g id="molecules/room-filter/00.-default" transform="translate(283.000000, 28.000000)">
                    <g id="icon/pay-at-hotel" transform="translate(9.000000, 0.000000)">
                        <circle id="Oval" stroke="#BED2E9" fill="#FEFEFF" fill-rule="nonzero" cx="20" cy="20" r="19.5"></circle>
                        <circle id="Oval" stroke="#0077FF" stroke-width="2" stroke-linecap="round" stroke-linejoin="round" cx="20.5" cy="16.5" r="5.5"></circle>
                        <path d="M20.1980969,19.8394966 L20.2034403,19.2196673 C19.0706486,19.1208152 18.3626539,18.5170158 18.3359371,17.4376578 L19.4553703,17.4376578 C19.4847588,17.8838281 19.7786434,18.1509959 20.214127,18.2338179 L20.2274854,16.8205001 L19.9710042,16.7563798 C19.0466035,16.5346305 18.477536,16.0724301 18.4802077,15.2655833 C18.4748644,14.3545409 19.2122476,13.7240248 20.2568738,13.6225011 L20.2622172,13 L20.8927333,13 L20.8873899,13.6278444 C21.9159861,13.7400549 22.5758907,14.3732427 22.5892491,15.2575682 L21.4805025,15.2575682 C21.4484424,14.9209368 21.2320364,14.6938441 20.8767032,14.6110221 L20.8660165,15.9468612 L21.0236455,15.9842647 C21.974763,16.197999 22.6613844,16.6815728 22.664056,17.5926151 C22.6613844,18.5196875 21.9907931,19.1341735 20.8339564,19.2223389 L20.828613,19.8394966 L20.1980969,19.8394966 Z M20.8446431,18.2338179 C21.2480665,18.1536676 21.4938609,17.9132165 21.4965326,17.5899434 C21.4938609,17.2853721 21.2694399,17.1170564 20.8553298,16.9861441 L20.8446431,18.2338179 Z M20.2355004,15.7838889 L20.2461871,14.603007 C19.8694805,14.6804857 19.6664329,14.902235 19.6664329,15.1881046 C19.6610896,15.4953476 19.9015406,15.6690067 20.2355004,15.7838889 Z" id="$" fill="#0077FF" fill-rule="nonzero"></path>
                        <path d="M14,23 L18.3359371,21 C20.4723239,21 22.0573951,21 23.0911507,21 C24.1249063,21 24.8655338,21.6666667 25.3130332,23 L26.3835068,25.2544157 L14,25.2544157 L14,23 Z" id="Path-7" fill="#FFFFFF"></path>
                        <g id="icon" transform="translate(9.500000, 16.500000)" stroke="#0077FF" stroke-linejoin="round" stroke-width="2">
                            <g id="hand" transform="translate(11.000000, 6.500000) scale(-1, 1) rotate(-90.000000) translate(-11.000000, -6.500000) translate(5.000000, -4.000000)">
                                <path d="M5.62823779,6.59520257 L7.1901896,2.14762266 C7.46086198,1.37689656 7.05548834,0.532676286 6.28476224,0.262003907 C6.24366168,0.247569744 6.20194352,0.23495835 6.15972976,0.224206608 C5.23118107,-0.0122924893 4.25774679,0.390695251 3.7680732,1.2143179 L1.05968076,5.76978788 C0.373148278,6.92452383 0.0940055567,8.27625289 0.266960578,9.6084798 L0.983355831,15.1266835 C0.994440377,15.2120648 1,15.2980728 1,15.3841707 L1,17.7195995 L1,17.7195995" id="Path" stroke-linecap="round"></path>
                                <path d="M5.44371661,9.85566852 L6.79631184,8.24370829 C6.95674966,8.05250594 7.15155987,7.89302429 7.37067871,7.77350205 L8.5202552,7.14644524 C9.03892814,6.86352593 9.68834559,7.03718442 9.99658046,7.54122432 C10.3253543,8.07885055 10.2739405,8.76640335 9.86886481,9.24915374 L7.4074187,12.182591 C7.02222677,12.6416449 6.53881452,13.0082861 5.99289783,13.2554263 L2.61216139,14.7859085 L2.61216139,14.7859085" id="Path" stroke-linecap="round" transform="translate(6.412085, 10.898426) rotate(-40.000000) translate(-6.412085, -10.898426) "></path>
                                <rect id="Rectangle" fill="#FFFFFF" x="0" y="17" width="6" height="4"></rect>
                            </g>
                        </g>
                    </g>
                </g>
            </g>
        </g>
    </g>
</svg>