<?xml version="1.0" encoding="UTF-8"?>
<svg width="40px" height="40px" viewBox="0 0 40 40" version="1.1" xmlns="http://www.w3.org/2000/svg" xmlns:xlink="http://www.w3.org/1999/xlink">
    <title>icon/pay later</title>
    <g id="Page-1" stroke="none" stroke-width="1" fill="none" fill-rule="evenodd">
        <g id="03.-hotel---subpage---all-deals" transform="translate(-152.000000, -92.000000)">
            <g id="filters" transform="translate(0.000000, 64.000000)">
                <g id="molecules/room-filter/00.-default" transform="translate(149.000000, 28.000000)">
                    <g id="icon/pay-later" transform="translate(3.000000, 0.000000)">
                        <circle id="Oval" stroke="#BED2E9" fill="#FEFEFF" fill-rule="nonzero" cx="20" cy="20" r="19.5"></circle>
                        <path d="M25.9737133,26.4528231 C27.8355861,24.7184822 29,22.2452228 29,19.5 C29,14.2532949 24.7467051,10 19.5,10 C14.2532949,10 10,14.2532949 10,19.5 C10,24.7467051 14.2532949,29 19.5,29 C20.2539041,29 20.9872972,28.9121818 21.6905079,28.7462169" id="Path" stroke="#0077FF" stroke-width="2" stroke-linecap="round" stroke-linejoin="round"></path>
                        <path d="M19.0585907,24.500009 L19.0664032,23.5937503 C17.4101548,23.4492192 16.3749995,22.5664076 16.3359371,20.9882841 L17.9726543,20.9882841 C18.015623,21.6406272 18.4453101,22.0312518 19.0820282,22.1523455 L19.1015594,20.0859412 L18.7265598,19.9921913 C17.3749986,19.6679728 16.5429681,18.9921922 16.5468744,17.8125058 C16.5390619,16.4804759 17.6171859,15.5586017 19.1445282,15.4101644 L19.1523406,14.500009 L20.0742148,14.500009 L20.0664023,15.4179769 C21.5703071,15.5820392 22.5351499,16.5078196 22.5546812,17.8007871 L20.9335889,17.8007871 C20.886714,17.3086001 20.570308,16.9765691 20.0507773,16.8554755 L20.0351523,18.8085986 L20.2656208,18.8632861 C21.6562445,19.1757858 22.6601498,19.8828164 22.664056,21.2148463 C22.6601498,22.5703138 21.679682,23.4687504 19.9882773,23.5976566 L19.9804649,24.500009 L19.0585907,24.500009 Z M20.0039023,22.1523455 C20.5937455,22.0351581 20.9531202,21.6835959 20.9570264,21.2109401 C20.9531202,20.765628 20.6249955,20.5195345 20.0195273,20.3281284 L20.0039023,22.1523455 Z M19.1132782,18.5703176 L19.1289032,16.8437568 C18.5781224,16.9570379 18.2812477,17.2812563 18.2812477,17.6992247 C18.2734352,18.148443 18.6249974,18.402349 19.1132782,18.5703176 Z" id="$" fill="#0077FF" fill-rule="nonzero"></path>
                        <polyline id="Path-4" stroke="#0077FF" stroke-width="2" stroke-linecap="round" stroke-linejoin="round" transform="translate(26.890049, 25.397720) rotate(-140.000000) translate(-26.890049, -25.397720) " points="23.9193843 26.8591793 26.8900493 23.9362616 29.8607143 26.8591793"></polyline>
                    </g>
                </g>
            </g>
        </g>
    </g>
</svg>