<?xml version="1.0" encoding="UTF-8"?>
<svg width="46px" height="58px" viewBox="0 0 46 58" version="1.1" xmlns="http://www.w3.org/2000/svg" xmlns:xlink="http://www.w3.org/1999/xlink">
    <title>molecules/room filter/00. defaultpaylater</title>
    <g id="Symbols" stroke="none" stroke-width="1" fill="none" fill-rule="evenodd">
        <g id="_linked/03.-hotel---subpage---all-deals" transform="translate(-149.000000, -92.000000)">
            <g id="filters" transform="translate(0.000000, 64.000000)">
                <g id="molecules/room-filter/00.-default" transform="translate(149.000000, 28.000000)">
                    <text id="Pay-Later" font-family="Helvetica" font-size="10" font-weight="normal" line-spacing="20" fill="#0077FF">
                        <tspan x="1.59863281" y="48">Pay Later</tspan>
                    </text>
                    <circle id="Oval" stroke="#BED2E9" fill="#FEFEFF" fill-rule="nonzero" cx="23" cy="20" r="19.5"></circle>
                    <path d="M28.9737133,26.4528231 C30.8355861,24.7184822 32,22.2452228 32,19.5 C32,14.2532949 27.7467051,10 22.5,10 C17.2532949,10 13,14.2532949 13,19.5 C13,24.7467051 17.2532949,29 22.5,29 C23.2539041,29 23.9872972,28.9121818 24.6905079,28.7462169" id="Path" stroke="#0077FF" stroke-width="2" stroke-linecap="round" stroke-linejoin="round"></path>
                    <path d="M22.0585907,24.500009 L22.0664032,23.5937503 C20.4101548,23.4492192 19.3749995,22.5664076 19.3359371,20.9882841 L20.9726543,20.9882841 C21.015623,21.6406272 21.4453101,22.0312518 22.0820282,22.1523455 L22.1015594,20.0859412 L21.7265598,19.9921913 C20.3749986,19.6679728 19.5429681,18.9921922 19.5468744,17.8125058 C19.5390619,16.4804759 20.6171859,15.5586017 22.1445282,15.4101644 L22.1523406,14.500009 L23.0742148,14.500009 L23.0664023,15.4179769 C24.5703071,15.5820392 25.5351499,16.5078196 25.5546812,17.8007871 L23.9335889,17.8007871 C23.886714,17.3086001 23.570308,16.9765691 23.0507773,16.8554755 L23.0351523,18.8085986 L23.2656208,18.8632861 C24.6562445,19.1757858 25.6601498,19.8828164 25.664056,21.2148463 C25.6601498,22.5703138 24.679682,23.4687504 22.9882773,23.5976566 L22.9804649,24.500009 L22.0585907,24.500009 Z M23.0039023,22.1523455 C23.5937455,22.0351581 23.9531202,21.6835959 23.9570264,21.2109401 C23.9531202,20.765628 23.6249955,20.5195345 23.0195273,20.3281284 L23.0039023,22.1523455 Z M22.1132782,18.5703176 L22.1289032,16.8437568 C21.5781224,16.9570379 21.2812477,17.2812563 21.2812477,17.6992247 C21.2734352,18.148443 21.6249974,18.402349 22.1132782,18.5703176 Z" id="$" fill="#0077FF" fill-rule="nonzero"></path>
                    <polyline id="Path-4" stroke="#0077FF" stroke-width="2" stroke-linecap="round" stroke-linejoin="round" transform="translate(29.890049, 25.397720) rotate(-140.000000) translate(-29.890049, -25.397720) " points="26.9193843 26.8591793 29.8900493 23.9362616 32.8607143 26.8591793"></polyline>
                </g>
            </g>
        </g>
    </g>
</svg>